HIERARCHY
ROOT Hips
{
  OFFSET 0 89.5177 0.535
  CHANNELS 6 Xposition Yposition Zposition Zrotation Xrotation Yrotation
  JOINT Spine
  {
    OFFSET 12.0259 -0.162855 1.69034e-005
    CHANNELS 3 Zrotation Xrotation Yrotation
    JOINT Spine1
    {
      OFFSET 15.3169 -0.0121922 0
      CHANNELS 3 Zrotation Xrotation Yrotation
      JOINT Spine2
      {
        OFFSET 15.3176 -0.0121908 0
        CHANNELS 3 Zrotation Xrotation Yrotation
        JOINT Neck
        {
          OFFSET 19.9142 1.56338 0
          CHANNELS 3 Zrotation Xrotation Yrotation
          JOINT Head
          {
            OFFSET 6.92651 0 0
            CHANNELS 3 Zrotation Xrotation Yrotation
            End Site
            {
              OFFSET 20.7666 0 0
            }
          }
          JOINT LeftShoulder
          {
            OFFSET -6.20654 0.708824 7.28219
            CHANNELS 3 Zrotation Xrotation Yrotation
            JOINT LeftArm
            {
              OFFSET 14.108 0 -1.52588e-005
              CHANNELS 3 Zrotation Xrotation Yrotation
              JOINT LeftForeArm
              {
                OFFSET 28.5802 0 0
                CHANNELS 3 Zrotation Xrotation Yrotation
                JOINT LeftHand
                {
                  OFFSET 27.092 0 0
                  CHANNELS 3 Zrotation Xrotation Yrotation
                  End Site
                  {
                    OFFSET 9.55928 -0.186424 0.145352
                  }
                }
              }
            }
          }
          JOINT RightShoulder
          {
            OFFSET -6.20654 0.708866 -7.28218
            CHANNELS 3 Zrotation Xrotation Yrotation
            JOINT RightArm
            {
              OFFSET 14.108 0 1.52588e-005
              CHANNELS 3 Zrotation Xrotation Yrotation
              JOINT RightForeArm
              {
                OFFSET 28.5802 0 0
                CHANNELS 3 Zrotation Xrotation Yrotation
                JOINT RightHand
                {
                  OFFSET 27.092 0 0
                  CHANNELS 3 Zrotation Xrotation Yrotation
                  End Site
                  {
                    OFFSET 9.55929 -0.186417 -0.145354
                  }
                }
              }
            }
          }
        }
      }
    }
  }
  JOINT LeftUpLeg
  {
    OFFSET 0.005 -0.535 8.837
    CHANNELS 3 Zrotation Xrotation Yrotation
    JOINT LeftLeg
    {
      OFFSET 39.9035 0 0
      CHANNELS 3 Zrotation Xrotation Yrotation
      JOINT LeftFoot
      {
        OFFSET 39.6689 0 0
        CHANNELS 3 Zrotation Xrotation Yrotation
        JOINT LeftToe
        {
          OFFSET 10.1624 13.6296 0
          CHANNELS 3 Zrotation Xrotation Yrotation
          End Site
          {
            OFFSET 8.38147 0 0
          }
        }
      }
    }
  }
  JOINT RightUpLeg
  {
    OFFSET 0.005 -0.535 -8.837
    CHANNELS 3 Zrotation Xrotation Yrotation
    JOINT RightLeg
    {
      OFFSET 39.9035 0 0
      CHANNELS 3 Zrotation Xrotation Yrotation
      JOINT RightFoot
      {
        OFFSET 39.6689 0 0
        CHANNELS 3 Zrotation Xrotation Yrotation
        JOINT RightToe
        {
          OFFSET 10.1624 13.6296 0
          CHANNELS 3 Zrotation Xrotation Yrotation
          End Site
          {
            OFFSET 8.38147 0 0
          }
        }
      }
    }
  }
}
MOTION
Frames:	15
Frame Time:	0.0333333
413.315 89.6662 49.8765 109.278 -84.7515 21.4871 0.393357 -0.910006 0.556799 0.795693 -1.81565 1.12021 0.795693 -1.81565 1.1202 -8.30669e-012 -9.0191e-006 -5.27751e-005 -19.1134 21.7515 2.11344 -178.852 -8.76057 -82.5051 65.6102 -64.5472 61.4924 -6.25117 -3.18055e-015 -0 -45.1016 -14.8542 -35.0803 -179.849 2.68046 86.7649 59.2917 53.8117 -52.4171 -20.37 3.18055e-015 -7.95139e-016 -34.0554 33.7388 38.184 6.85513 4.85479 -177.451 -2.5746e-006 -4.77083e-015 -1.39149e-015 5.62682 10.4495 -8.15167 90 -3.72721e-017 -0 7.36909 -14.7404 -179.72 -5.02586 -1.59028e-015 -3.97569e-016 9.70801 -2.41582 -0.368156 90 0 -0 
413.239 89.6587 49.9391 109.325 -84.7131 21.5227 0.387984 -0.890639 0.564543 0.784871 -1.77692 1.13548 0.784871 -1.77692 1.13547 -8.30828e-012 -9.0191e-006 -5.27751e-005 -19.0053 21.8978 1.97374 -178.858 -8.68408 -82.4795 65.6879 -64.4925 61.6069 -6.24752 3.18055e-015 1.59028e-015 -45.0014 -14.9395 -35.2217 -179.847 2.74226 86.7999 59.2059 53.7531 -52.4227 -20.3537 0 3.97569e-015 -33.9579 33.7634 38.1032 6.80773 4.82345 -177.479 -2.5746e-006 3.18055e-015 -1.98785e-016 5.69067 10.4538 -8.24611 90 -1.42876e-016 1.98785e-016 7.24352 -14.7523 -179.778 -5.15588 0 3.97569e-016 9.77518 -2.37586 -0.321993 90 1.98785e-016 -3.18055e-015 
413.161 89.6474 50.0126 109.242 -84.702 21.419 0.383012 -0.88329 0.562095 0.774811 -1.76229 1.13045 0.774811 -1.76229 1.13044 -8.30669e-012 -9.0191e-006 -5.27751e-005 -18.9265 22.0643 2.08322 -178.862 -8.64311 -82.4725 65.8517 -64.529 61.704 -6.12157 1.59028e-015 -1.59028e-015 -44.9079 -14.9578 -35.2336 -179.848 2.71902 86.8025 59.3361 53.8038 -52.5771 -20.3286 0 -5.56597e-015 -33.7984 33.7538 37.9762 6.77419 4.87571 -177.498 -2.5746e-006 3.18055e-015 1.98785e-016 5.77806 10.4981 -8.4169 90 3.41661e-016 -0 7.23417 -14.7728 -179.806 -5.09167 1.59028e-015 -0 9.76853 -2.38195 -0.272422 90 -9.93923e-017 1.59028e-015 
413.082 89.6382 50.1109 109.559 -84.6955 21.719 0.370585 -0.884395 0.54996 0.749779 -1.7647 1.10599 0.749779 -1.7647 1.10598 -8.30669e-012 -9.0191e-006 -5.27751e-005 -18.8549 22.1273 2.20693 -178.856 -8.69651 -82.4767 66.1255 -64.6426 61.9286 -5.93902 0 -0 -44.9514 -14.8628 -35.1376 -179.849 2.6758 86.7696 59.2875 53.7738 -52.5702 -20.3505 -3.18055e-015 4.77083e-015 -33.7002 33.7649 37.9137 6.70037 4.79152 -177.537 -2.5746e-006 0 -1.19271e-015 5.82061 10.4316 -8.41453 90 1.86361e-017 9.93923e-017 7.14418 -14.7354 -179.851 -5.07832 0 -0 9.77384 -2.36831 -0.230085 90 1.98785e-016 -3.18055e-015 
413.002 89.629 50.2135 109.686 -84.7219 21.8272 0.368122 -0.874651 0.547798 0.744722 -1.74525 1.10156 0.744722 -1.74525 1.10155 -8.30748e-012 -9.0191e-006 -5.27751e-005 -18.7027 22.1329 2.21362 -178.847 -8.72878 -82.4436 66.0975 -64.5982 61.9092 -5.90037 1.59028e-015 3.18055e-015 -44.9339 -14.9434 -35.2363 -179.849 2.67767 86.7646 59.2854 53.8033 -52.5824 -20.3803 0 -0 -33.6428 33.7145 37.8204 6.64975 4.87411 -177.57 -2.5746e-006 0 -0 5.89139 10.4594 -8.56661 90 -1.16165e-015 -0 7.01542 -14.7201 -179.909 -5.17885 -1.59028e-015 -3.97569e-016 9.82394 -2.33362 -0.183441 90 0 -1.59028e-015 
412.93 89.621 50.3338 110.029 -84.7384 22.1324 0.360571 -0.865443 0.550572 0.729435 -1.72691 1.10099 0.729435 -1.72691 1.10099 -8.30748e-012 -9.0191e-006 -5.27751e-005 -18.6083 22.1498 2.31004 -178.842 -8.73032 -82.4134 66.3292 -64.6276 62.0938 -5.82179 0 -3.18055e-015 -44.7874 -14.9353 -35.1115 -179.848 2.69632 86.7635 59.0941 53.7542 -52.4301 -20.4045 -3.18055e-015 -7.95139e-016 -33.6444 33.7946 37.8912 6.5602 4.94851 -177.577 -2.5746e-006 0 -9.93923e-016 5.9569 10.4959 -8.71095 90 7.01958e-016 -0 6.97438 -14.6962 -179.916 -5.0551 -1.59028e-015 -0 9.76617 -2.34917 -0.146119 90 9.93923e-017 -3.18055e-015 
412.861 89.6144 50.4657 110.383 -84.7531 22.4387 0.356676 -0.844648 0.553344 0.721613 -1.68532 1.11228 0.721613 -1.68532 1.11227 -8.3051e-012 -9.0191e-006 -5.27751e-005 -18.5651 22.0141 2.35682 -178.845 -8.66518 -82.3767 66.5504 -64.6545 62.2879 -5.73867 1.59028e-015 -3.18055e-015 -44.7939 -15.0221 -35.2429 -179.845 2.73298 86.7582 58.9473 53.7577 -52.2562 -20.4048 0 7.95139e-016 -33.6821 33.8785 37.9612 6.46237 5.03595 -177.571 -2.5746e-006 1.59028e-015 -1.19271e-015 6.02813 10.544 -8.89919 90 -2.09345e-015 9.93923e-017 6.9183 -14.6939 -179.909 -4.94499 -4.77083e-015 -7.95139e-016 9.70285 -2.35526 -0.112277 90 0 -0 
412.777 89.6085 50.5951 110.585 -84.79 22.6209 0.351013 -0.836084 0.541666 0.71003 -1.66833 1.08878 0.71003 -1.66833 1.08877 -8.30907e-012 -9.0191e-006 -5.27751e-005 -18.4396 21.9512 2.5022 -178.848 -8.64876 -82.3796 66.6749 -64.7221 62.3422 -5.56806 3.18055e-015 -0 -44.8509 -14.8555 -35.1072 -179.847 2.68139 86.7407 59.0419 53.8027 -52.2798 -20.3881 3.18055e-015 -1.59028e-015 -33.633 33.8304 37.8924 6.39375 5.04495 -177.61 -2.5746e-006 -1.59028e-015 -1.98785e-016 6.07757 10.5293 -9.00292 90 -7.26806e-016 -9.93923e-017 6.95718 -14.746 -179.925 -4.67987 1.59028e-015 -0 9.58591 -2.40857 -0.057546 90 2.98177e-016 -0 
412.704 89.5903 50.7465 110.952 -84.8375 22.9537 0.337013 -0.822369 0.534008 0.681783 -1.64108 1.07318 0.681783 -1.64108 1.07317 -8.30828e-012 -9.0191e-006 -5.27751e-005 -18.2334 21.896 2.55954 -178.847 -8.64219 -82.3727 66.52 -64.7402 62.1748 -5.52239 -1.59028e-015 6.36111e-015 -44.7951 -14.8866 -35.1387 -179.848 2.65228 86.7194 59.0406 53.8145 -52.2143 -20.3818 -3.18055e-015 1.59028e-015 -33.6782 33.7663 37.8808 6.31286 5.0278 -177.634 -2.5746e-006 1.59028e-015 -5.96354e-016 6.15164 10.4732 -9.05865 90 -1.36664e-016 -9.93923e-017 6.95853 -14.6885 -179.924 -4.45584 0 -7.95139e-016 9.51133 -2.39397 -0.0238856 90 -1.98785e-016 1.59028e-015 
412.632 89.5471 50.9027 111.607 -84.8934 23.5766 0.317776 -0.806203 0.523419 0.643001 -1.60899 1.05162 0.643001 -1.60899 1.05161 -8.30669e-012 -9.0191e-006 -5.27751e-005 -18.0671 21.8938 2.67402 -178.849 -8.67205 -82.408 66.3666 -64.7198 62.0649 -5.61082 1.59028e-015 -0 -44.7512 -15.0163 -35.3113 -179.849 2.65249 86.7439 59.121 53.7973 -52.2927 -20.4021 3.18055e-015 3.97569e-015 -33.657 33.7944 37.9143 6.2126 5.16711 -177.648 -2.5746e-006 -3.18055e-015 -1.19271e-015 6.31753 10.4867 -9.26572 90 1.2424e-015 -0 7.12833 -14.5679 -179.874 -3.88485 1.59028e-015 -0 9.3631 -2.36542 0.000671959 90 9.93923e-017 3.18055e-015 
412.548 89.4671 51.0568 112.716 -84.9543 24.709 0.297612 -0.788408 0.502265 0.602211 -1.5737 1.00893 0.602211 -1.5737 1.00892 -8.30987e-012 -9.0191e-006 -5.27751e-005 -18.0125 21.9223 2.80414 -178.842 -8.71184 -82.4016 66.2881 -64.8272 62.0225 -5.65107 -3.18055e-015 -3.18055e-015 -44.7601 -15.0139 -35.2946 -179.851 2.64373 86.7769 59.1772 53.7906 -52.365 -20.3859 6.36111e-015 -2.38542e-015 -33.5537 33.789 37.8048 6.11504 5.13823 -177.731 -2.5746e-006 -4.77083e-015 -3.97569e-016 6.56467 10.3721 -9.40304 90 -4.37947e-016 -9.93923e-017 7.38411 -14.4242 -179.858 -3.08275 3.18056e-015 -3.97569e-016 9.2421 -2.27272 0.037108 90 -4.96962e-017 -0 
412.471 89.3309 51.228 114.702 -84.9992 26.6959 0.259353 -0.753399 0.495395 0.52528 -1.50405 0.99449 0.52528 -1.50405 0.994481 -8.30748e-012 -9.0191e-006 -5.27751e-005 -18.0144 21.9607 2.88316 -178.844 -8.69867 -82.4026 66.3383 -64.9329 62.1197 -5.68062 0 3.18055e-015 -44.8215 -14.8701 -35.1118 -179.852 2.6839 86.8457 59.0972 53.7943 -52.2755 -20.347 0 7.95139e-016 -33.5404 33.8064 37.8543 5.94627 5.30072 -177.777 -2.5746e-006 -1.59028e-015 -5.96354e-016 7.02467 10.3375 -9.83231 90 1.11195e-015 -9.93923e-017 7.74717 -14.1707 -179.766 -1.94992 -1.59028e-015 -3.97569e-016 9.11011 -2.07699 0.0510284 90 -9.93923e-017 4.77083e-015 
412.389 89.1542 51.3981 116.739 -85.063 28.5968 0.227177 -0.7285 0.509583 0.460883 -1.45447 1.02234 0.460883 -1.45447 1.02233 -8.30748e-012 -9.0191e-006 -5.27751e-005 -18.0602 22.0139 2.84144 -178.834 -8.7981 -82.4207 66.1266 -64.9898 62.0413 -5.84977 4.77083e-015 -6.36111e-015 -44.7702 -14.9836 -35.2693 -179.856 2.64287 86.8739 59.1168 53.8431 -52.2505 -20.3731 -6.36111e-015 2.38542e-015 -33.5346 33.8191 37.8843 5.79746 5.43655 -177.678 -2.5746e-006 -3.18055e-015 -1.98785e-016 7.68469 10.2628 -10.4131 90 -6.1499e-016 1.98785e-016 7.90606 -13.8619 -179.609 -1.31642 -1.59028e-015 -3.97569e-016 9.25331 -1.86031 0.0671435 90 -9.93923e-017 -0 
412.306 89.023 51.5564 118.437 -85.1455 29.9639 0.213313 -0.706216 0.579258 0.433805 -1.40976 1.16144 0.433805 -1.40976 1.16143 -8.30748e-012 -9.0191e-006 -5.27751e-005 -18.2095 22.1082 2.70635 -178.796 -8.93318 -82.2939 66.0098 -65.0375 62.1097 -6.01958 -1.59028e-015 -3.18055e-015 -44.7872 -14.9741 -35.2324 -179.857 2.61947 86.8853 59.0549 53.8941 -52.2192 -20.4556 0 7.95139e-016 -33.6182 33.7692 37.9551 5.68431 5.55087 -177.401 -2.5746e-006 0 -1.19271e-015 8.25848 10.0642 -10.8115 90 1.81779e-015 -9.93923e-017 8.32396 -13.5924 -179.248 -0.301789 0 -0 8.97323 -1.82472 0.115049 90 9.93923e-017 1.59028e-015 
412.215 88.9792 51.7336 121.047 -85.1232 32.2393 0.190054 -0.693425 0.672147 0.388274 -1.3841 1.34691 0.388274 -1.3841 1.3469 -8.30907e-012 -9.0191e-006 -5.27751e-005 -18.263 22.0881 2.31474 -178.744 -9.05973 -82.0709 65.5284 -64.6902 61.9204 -6.24332 0 4.77083e-015 -44.9518 -15.0405 -35.3358 -179.857 2.62768 86.8815 58.7839 53.8139 -52.1178 -20.5739 -3.18055e-015 1.59028e-015 -33.85 33.6905 38.0781 5.39542 5.70985 -177.122 -2.5746e-006 -3.18055e-015 -0 8.57526 10.0269 -11.2271 90 -4.81626e-016 -0 8.21805 -13.5152 -178.976 1.88993e-006 3.18056e-015 5.96354e-016 8.79468 -1.9384 0.175393 90 -1.49089e-016 1.59028e-015 
